<svg width="177" height="27" viewBox="0 0 177 27" fill="none" xmlns="http://www.w3.org/2000/svg">
<path fill-rule="evenodd" clip-rule="evenodd" d="M154.003 17.8222L153.999 17.828L153.994 17.8338C153.736 18.1578 153.157 18.253 152.705 17.9698C152.342 17.7431 152.233 17.2381 152.542 16.839C153.002 16.3192 153.336 15.7116 153.556 15.1174C153.784 14.499 153.89 13.7964 153.887 13.1071C153.883 12.4179 153.768 11.7162 153.532 11.1C153.305 10.5081 152.964 9.9036 152.497 9.3882C152.184 8.99197 152.287 8.48591 152.647 8.25585C153.095 7.96844 153.675 8.0582 153.936 8.37977L153.942 8.38554L153.946 8.39121C154.527 9.06948 155.003 9.82307 155.287 10.5624C155.587 11.4322 155.777 12.2735 155.783 13.0982C155.788 13.9659 155.695 14.7874 155.335 15.596C154.943 16.4766 154.565 17.1514 154.003 17.8222ZM158.2 19.4329L158.21 19.4187L158.222 19.4039C159.507 17.5774 160.25 15.3733 160.236 13.0771C160.223 10.7816 159.454 8.58519 158.147 6.77115C157.864 6.37288 157.99 5.90199 158.469 5.5962C158.789 5.39083 159.391 5.46355 159.748 5.88795C161.225 7.9639 162.117 10.4734 162.132 13.0683C162.148 15.7515 161.288 18.1796 159.835 20.2707C159.499 20.6807 158.984 20.7955 158.541 20.5632C158.06 20.2509 157.972 19.719 158.2 19.4329ZM165.73 3.15929L165.743 3.18147L165.758 3.20267C167.758 6.09323 168.87 9.42739 168.891 13.0364C168.913 16.6436 167.842 19.9866 165.879 22.895C165.578 23.324 165.07 23.445 164.553 23.2325C164.085 22.9616 163.959 22.5126 164.204 22.0591C165.875 19.4302 166.912 16.3324 166.894 13.0458C166.873 9.77367 165.908 6.68079 164.092 4.05174C163.847 3.60284 163.969 3.15576 164.432 2.88174C164.992 2.64502 165.536 2.81854 165.73 3.15929ZM171.654 0.408409L171.662 0.423561L171.673 0.438263C174.097 4.15208 175.522 8.39807 175.549 13.0049C175.577 17.607 174.206 21.8622 171.831 25.5959C171.529 26.02 171.024 26.1388 170.51 25.9272C170.043 25.6572 169.916 25.2102 170.158 24.7582C172.446 21.2976 173.679 17.2881 173.653 13.0139C173.627 8.72853 172.238 4.73464 170.02 1.30808C169.742 0.807871 169.937 0.31797 170.326 0.143768C170.895 -0.111929 171.456 0.0616428 171.654 0.408409Z" fill="white"/>
<path d="M13.8849 11.3622H11.2287C11.1529 10.9266 11.0133 10.5407 10.8097 10.2045C10.6061 9.86364 10.3527 9.57481 10.0497 9.33807C9.74669 9.10133 9.40104 8.92377 9.01278 8.8054C8.62926 8.68229 8.21496 8.62074 7.76989 8.62074C6.97917 8.62074 6.27841 8.8196 5.66761 9.21733C5.05682 9.61032 4.5786 10.188 4.23295 10.9503C3.88731 11.7079 3.71449 12.6335 3.71449 13.7273C3.71449 14.84 3.88731 15.7775 4.23295 16.5398C4.58333 17.2973 5.06155 17.8703 5.66761 18.2585C6.27841 18.642 6.9768 18.8338 7.76278 18.8338C8.19839 18.8338 8.60559 18.777 8.98438 18.6634C9.3679 18.545 9.71117 18.3722 10.0142 18.1449C10.322 17.9176 10.58 17.6383 10.7884 17.3068C11.0014 16.9754 11.1482 16.5966 11.2287 16.1705L13.8849 16.1847C13.7855 16.8759 13.5701 17.5246 13.2386 18.1307C12.9119 18.7367 12.4834 19.2718 11.9531 19.7358C11.4228 20.1951 10.8026 20.5549 10.0923 20.8153C9.3821 21.071 8.59375 21.1989 7.72727 21.1989C6.44886 21.1989 5.30777 20.9029 4.30398 20.3111C3.30019 19.7192 2.50947 18.8646 1.93182 17.7472C1.35417 16.6297 1.06534 15.2898 1.06534 13.7273C1.06534 12.16 1.35653 10.8201 1.93892 9.70739C2.52131 8.58996 3.31439 7.73532 4.31818 7.14347C5.32197 6.55161 6.45833 6.25568 7.72727 6.25568C8.53693 6.25568 9.28977 6.36932 9.9858 6.59659C10.6818 6.82386 11.3021 7.15767 11.8466 7.59801C12.3911 8.03362 12.8385 8.56866 13.1889 9.20312C13.544 9.83286 13.776 10.5526 13.8849 11.3622ZM16.2979 21V6.45455H21.7525C22.8699 6.45455 23.8074 6.64867 24.565 7.03693C25.3273 7.42519 25.9026 7.9697 26.2908 8.67045C26.6838 9.36648 26.8803 10.1785 26.8803 11.1065C26.8803 12.0393 26.6815 12.849 26.2837 13.5355C25.8907 14.2173 25.3107 14.7453 24.5437 15.1193C23.7766 15.4886 22.8344 15.6733 21.717 15.6733H17.832V13.4858H21.3619C22.0153 13.4858 22.5503 13.3958 22.967 13.2159C23.3836 13.0312 23.6914 12.7637 23.8903 12.4134C24.0939 12.0582 24.1957 11.6226 24.1957 11.1065C24.1957 10.5904 24.0939 10.1501 23.8903 9.78551C23.6867 9.41619 23.3765 9.13684 22.9599 8.94744C22.5432 8.75331 22.0058 8.65625 21.3477 8.65625H18.9329V21H16.2979ZM23.8121 14.4091L27.413 21H24.4727L20.9357 14.4091H23.8121ZM29.3058 21V6.45455H38.766V8.66335H31.9407V12.6122H38.2759V14.821H31.9407V18.7912H38.8228V21H29.3058ZM46.3832 21H41.4542V6.45455H46.4826C47.9267 6.45455 49.1673 6.74574 50.2042 7.32812C51.2459 7.90578 52.046 8.73674 52.6048 9.82102C53.1635 10.9053 53.4428 12.2027 53.4428 13.7131C53.4428 15.2282 53.1611 16.5303 52.5977 17.6193C52.0389 18.7083 51.2317 19.544 50.1758 20.1264C49.1246 20.7088 47.8604 21 46.3832 21ZM44.0891 18.7202H46.2553C47.2686 18.7202 48.1138 18.5355 48.7908 18.1662C49.4679 17.7921 49.9769 17.2358 50.3178 16.4972C50.6587 15.7538 50.8292 14.8258 50.8292 13.7131C50.8292 12.6004 50.6587 11.6771 50.3178 10.9432C49.9769 10.2045 49.4727 9.65294 48.805 9.28835C48.1422 8.91903 47.3183 8.73438 46.3335 8.73438H44.0891V18.7202ZM58.5813 6.45455V21H55.9464V6.45455H58.5813ZM60.7955 8.66335V6.45455H72.4006V8.66335H67.9048V21H65.2912V8.66335H60.7955ZM92.049 11.3622H89.3928C89.317 10.9266 89.1773 10.5407 88.9737 10.2045C88.7701 9.86364 88.5168 9.57481 88.2138 9.33807C87.9107 9.10133 87.5651 8.92377 87.1768 8.8054C86.7933 8.68229 86.379 8.62074 85.9339 8.62074C85.1432 8.62074 84.4425 8.8196 83.8317 9.21733C83.2209 9.61032 82.7427 10.188 82.397 10.9503C82.0514 11.7079 81.8786 12.6335 81.8786 13.7273C81.8786 14.84 82.0514 15.7775 82.397 16.5398C82.7474 17.2973 83.2256 17.8703 83.8317 18.2585C84.4425 18.642 85.1409 18.8338 85.9268 18.8338C86.3625 18.8338 86.7696 18.777 87.1484 18.6634C87.532 18.545 87.8752 18.3722 88.1783 18.1449C88.486 17.9176 88.7441 17.6383 88.9524 17.3068C89.1655 16.9754 89.3123 16.5966 89.3928 16.1705L92.049 16.1847C91.9496 16.8759 91.7341 17.5246 91.4027 18.1307C91.076 18.7367 90.6475 19.2718 90.1172 19.7358C89.5869 20.1951 88.9666 20.5549 88.2564 20.8153C87.5462 21.071 86.7578 21.1989 85.8913 21.1989C84.6129 21.1989 83.4718 20.9029 82.468 20.3111C81.4643 19.7192 80.6735 18.8646 80.0959 17.7472C79.5182 16.6297 79.2294 15.2898 79.2294 13.7273C79.2294 12.16 79.5206 10.8201 80.103 9.70739C80.6854 8.58996 81.4785 7.73532 82.4822 7.14347C83.486 6.55161 84.6224 6.25568 85.8913 6.25568C86.701 6.25568 87.4538 6.36932 88.1499 6.59659C88.8459 6.82386 89.4661 7.15767 90.0107 7.59801C90.5552 8.03362 91.0026 8.56866 91.353 9.20312C91.7081 9.83286 91.9401 10.5526 92.049 11.3622ZM96.1541 21H93.3416L98.4624 6.45455H101.715L106.843 21H104.031L100.146 9.4375H100.032L96.1541 21ZM96.2464 15.2969H103.917V17.4134H96.2464V15.2969ZM108.759 21V6.45455H114.213C115.331 6.45455 116.268 6.64867 117.026 7.03693C117.788 7.42519 118.364 7.9697 118.752 8.67045C119.145 9.36648 119.341 10.1785 119.341 11.1065C119.341 12.0393 119.142 12.849 118.745 13.5355C118.352 14.2173 117.772 14.7453 117.005 15.1193C116.238 15.4886 115.295 15.6733 114.178 15.6733H110.293V13.4858H113.823C114.476 13.4858 115.011 13.3958 115.428 13.2159C115.845 13.0312 116.152 12.7637 116.351 12.4134C116.555 12.0582 116.657 11.6226 116.657 11.1065C116.657 10.5904 116.555 10.1501 116.351 9.78551C116.148 9.41619 115.837 9.13684 115.421 8.94744C115.004 8.75331 114.467 8.65625 113.809 8.65625H111.394V21H108.759ZM116.273 14.4091L119.874 21H116.934L113.397 14.4091H116.273ZM126.696 21H121.767V6.45455H126.795C128.239 6.45455 129.48 6.74574 130.517 7.32812C131.558 7.90578 132.359 8.73674 132.917 9.82102C133.476 10.9053 133.755 12.2027 133.755 13.7131C133.755 15.2282 133.474 16.5303 132.91 17.6193C132.351 18.7083 131.544 19.544 130.488 20.1264C129.437 20.7088 128.173 21 126.696 21ZM124.402 18.7202H126.568C127.581 18.7202 128.426 18.5355 129.103 18.1662C129.78 17.7921 130.289 17.2358 130.63 16.4972C130.971 15.7538 131.142 14.8258 131.142 13.7131C131.142 12.6004 130.971 11.6771 130.63 10.9432C130.289 10.2045 129.785 9.65294 129.118 9.28835C128.455 8.91903 127.631 8.73438 126.646 8.73438H124.402V18.7202Z" fill="white"/>
</svg>
